<svg width="64" height="64" viewBox="0 0 64 64" fill="none" xmlns="http://www.w3.org/2000/svg">
<path d="M27 7C24.7909 7 23 8.79086 23 11V13H9C6.79086 13 5 14.7909 5 17V55C5 57.2091 6.79086 59 9 59H54C56.2091 59 58 57.2091 58 55V44.8484C58.7201 44.6243 59.3757 44.1514 59.824 43.43L60.413 42.4822C60.6826 42.0484 61.0484 41.6826 61.4822 41.413L62.43 40.824C64.5233 39.5232 64.5233 36.4768 62.43 35.176L61.4822 34.587C61.0484 34.3174 60.6826 33.9516 60.413 33.5178L59.824 32.57C59.3757 31.8486 58.7201 31.3757 58 31.1516V17C58 14.7909 56.2091 13 54 13H42V11C42 8.79086 40.2091 7 38 7H27Z" fill="#1F3C45"/>
<path d="M4.54757 1.63823C4.8974 0.787257 6.1026 0.787257 6.45243 1.63823L7.1366 3.30249C7.24116 3.55685 7.44313 3.75882 7.69749 3.86338L9.36177 4.54755C10.2127 4.89737 10.2127 6.10257 9.36177 6.45239L7.69749 7.13655C7.44313 7.24112 7.24116 7.44308 7.1366 7.69745L6.45243 9.36171C6.1026 10.2127 4.8974 10.2127 4.54757 9.36171L3.8634 7.69744C3.75884 7.44308 3.55687 7.24112 3.30251 7.13655L1.63823 6.45239C0.787255 6.10257 0.787256 4.89737 1.63823 4.54755L3.30251 3.86338C3.55687 3.75882 3.75884 3.55685 3.8634 3.30249L4.54757 1.63823Z" fill="#1F3C45"/>
<path d="M57.5243 4.6538C57.8827 3.78207 59.1173 3.78207 59.4757 4.6538L59.5619 4.86353C59.669 5.12409 59.8759 5.33098 60.1365 5.4381L60.3462 5.52432C61.2179 5.88267 61.2179 7.11726 60.3462 7.47562L60.1365 7.56184C59.8759 7.66895 59.669 7.87585 59.5619 8.13641L59.4757 8.34614C59.1173 9.21787 57.8827 9.21787 57.5243 8.34614L57.4381 8.13641C57.331 7.87585 57.1241 7.66895 56.8635 7.56184L56.6538 7.47562C55.7821 7.11726 55.7821 5.88267 56.6538 5.52432L56.8635 5.4381C57.1241 5.33098 57.331 5.12409 57.4381 4.86353L57.5243 4.6538Z" fill="#1F3C45"/>
<path fill-rule="evenodd" clip-rule="evenodd" d="M14 55V25H56V31H52C50.9132 31 49.8264 31.5233 49.176 32.57L48.587 33.5178C48.3174 33.9516 47.9516 34.3174 47.5178 34.587L46.57 35.176C44.4767 36.4768 44.4767 39.5232 46.57 40.824L47.5178 41.413C47.9516 41.6826 48.3174 42.0484 48.587 42.4822L49.176 43.43C49.8264 44.4767 50.9132 45 52 45H56V55C56 56.1046 55.1046 57 54 57H16C14.8954 57 14 56.1046 14 55ZM20 33C20 31.8954 20.8954 31 22 31H38C39.1046 31 40 31.8954 40 33V48C40 49.1046 39.1046 50 38 50H22C20.8954 50 20 49.1046 20 48V33Z" fill="#B0D268"/>
<path d="M26.6667 44H33.3333C35.6843 44 37.6293 45.7385 37.9527 48H22.0473C22.3707 45.7385 24.3157 44 26.6667 44Z" fill="#F1EEE1"/>
<path d="M33 38C33 39.6569 31.6569 41 30 41C28.3431 41 27 39.6569 27 38C27 36.3431 28.3431 35 30 35C31.6569 35 33 36.3431 33 38Z" fill="#F1EEE1"/>
<path d="M58.1285 33.6274L58.7169 34.5742C59.1477 35.2676 59.7324 35.8523 60.4258 36.2831L61.3726 36.8715C62.2091 37.3913 62.2091 38.6087 61.3726 39.1285L60.4258 39.7169C59.7324 40.1477 59.1477 40.7324 58.7169 41.4258L58.1285 42.3726C57.6087 43.2091 56.3913 43.2091 55.8715 42.3726L55.2831 41.4258C54.8523 40.7324 54.2676 40.1477 53.5742 39.7169L52.6274 39.1285C51.7909 38.6087 51.7909 37.3913 52.6274 36.8715L53.5742 36.2831C54.2676 35.8523 54.8523 35.2676 55.2831 34.5742L55.8715 33.6274C56.3913 32.7909 57.6087 32.7909 58.1285 33.6274Z" fill="#F1EEE1"/>
<path d="M27 15H16C14.8954 15 14 15.8954 14 17V23H56V17C56 15.8954 55.1046 15 54 15H42V16C42 17.6569 40.6569 19 39 19H30C28.3431 19 27 17.6569 27 16V15Z" fill="#F1EEE1"/>
<path d="M33 9H38C39.1046 9 40 9.89543 40 11V16C40 16.5523 39.5523 17 39 17H32C31.4477 17 31 16.5523 31 16V11C31 9.89543 31.8954 9 33 9Z" fill="#F1EEE1"/>
</svg>
