<svg width="64" height="64" viewBox="0 0 64 64" fill="none" xmlns="http://www.w3.org/2000/svg">
<path d="M5 17C5 14.7909 6.79086 13 9 13H55C57.2091 13 59 14.7909 59 17V55C59 57.2091 57.2091 59 55 59H9C6.79086 59 5 57.2091 5 55V17Z" fill="#1F3C45"/>
<path fill-rule="evenodd" clip-rule="evenodd" d="M38.616 3H50.1577C50.1608 3 50.1638 3 50.1669 3.00001L56.3844 3.00001C58.5245 3.00001 59.7557 5.45501 58.4879 7.1945L49.9411 18.9213C49.3716 19.7025 48.5513 20.0311 47.7541 19.9977C44.5757 19.9977 47.7281 19.9988 44.7147 19.9988C43.3549 20.0392 42 19.0109 42 17.3608L42 12.8624C42 12.042 41.6211 11.2684 40.9751 10.77L37.03 7.72649C35.0467 6.19636 36.1192 3 38.616 3Z" fill="#1F3C45"/>
<path d="M9.5394 3.6437C9.89223 2.78543 11.1078 2.78543 11.4606 3.6437L11.8481 4.58622C11.9535 4.84276 12.1572 5.04646 12.4138 5.15192L13.3563 5.53938C14.2146 5.8922 14.2146 7.10773 13.3563 7.46056L12.4138 7.84802C12.1572 7.95348 11.9535 8.15718 11.8481 8.41372L11.4606 9.35623C11.1078 10.2145 9.89223 10.2145 9.5394 9.35623L9.15194 8.41372C9.04648 8.15718 8.84278 7.95348 8.58623 7.84802L7.64371 7.46056C6.78543 7.10773 6.78543 5.8922 7.64371 5.53938L8.58623 5.15192C8.84278 5.04646 9.04648 4.84276 9.15194 4.58622L9.5394 3.6437Z" fill="#1F3C45"/>
<path fill-rule="evenodd" clip-rule="evenodd" d="M14 25V55C14 56.1046 14.8954 57 16 57H55C56.1046 57 57 56.1046 57 55V25H14ZM22 30C20.8954 30 20 30.8954 20 32V49C20 50.1046 20.8954 51 22 51H49C50.1046 51 51 50.1046 51 49V32C51 30.8954 50.1046 30 49 30H22Z" fill="#B0D268"/>
<path d="M35.1534 36.5673C35.4644 35.8109 36.5356 35.8109 36.8466 36.5673L37.4548 38.0467C37.5477 38.2728 37.7272 38.4523 37.9533 38.5452L39.4327 39.1534C40.1891 39.4643 40.1891 40.5356 39.4327 40.8466L37.9533 41.4547C37.7272 41.5477 37.5477 41.7272 37.4548 41.9533L36.8466 43.4326C36.5356 44.189 35.4644 44.189 35.1534 43.4326L34.5452 41.9533C34.4523 41.7272 34.2728 41.5477 34.0467 41.4547L32.5673 40.8466C31.8109 40.5356 31.8109 39.4643 32.5673 39.1534L34.0467 38.5452C34.2728 38.4523 34.4523 38.2728 34.5452 38.0467L35.1534 36.5673Z" fill="#F1EEE1"/>
<path fill-rule="evenodd" clip-rule="evenodd" d="M42 15H16C14.8954 15 14 15.8954 14 17V23H57V17C57 15.8954 56.1046 15 55 15H52.799L49.9411 18.9213C49.3716 19.7025 48.5513 20.0311 47.7541 19.9977C46.1437 19.9977 46.1585 19.998 46.1731 19.9983C46.1873 19.9986 46.2013 19.9988 44.7147 19.9988C43.3549 20.0392 42 19.0109 42 17.3608L42 15ZM20 21C21.1046 21 22 20.1046 22 19C22 17.8954 21.1046 17 20 17C18.8954 17 18 17.8954 18 19C18 20.1046 18.8954 21 20 21ZM28 19C28 20.1046 27.1046 21 26 21C24.8954 21 24 20.1046 24 19C24 17.8954 24.8954 17 26 17C27.1046 17 28 17.8954 28 19Z" fill="#F1EEE1"/>
<path d="M56.408 5.00011C56.8942 5.00033 57.1703 5.54056 56.8841 5.93209C54.9794 8.53838 50.301 14.9076 48.208 17.7563C47.8701 18.2162 47.1428 17.9823 47.1318 17.4125C47.1033 15.9352 47.0674 14.014 47.0674 13.6779C47.0674 11.7683 46.1819 9.9677 44.6722 8.8077C44.1744 8.42516 42.4577 7.05845 41.2271 6.07681C40.7867 5.7255 41.0288 5.01901 41.593 5.01802C45.1164 5.0119 53.1922 4.99867 56.408 5.00011Z" fill="#F1EEE1"/>
</svg>
