<svg width="64" height="64" viewBox="0 0 64 64" fill="none" xmlns="http://www.w3.org/2000/svg">
<path fill-rule="evenodd" clip-rule="evenodd" d="M9.00001 10C9.00001 7.79086 10.7909 6 13 6H52C54.2092 6 56 7.79086 56 10V10.4289C57.4342 10.936 58.6869 11.8699 59.5837 13.1139C60.6348 14.5718 61.1274 16.3586 60.9719 18.1492C60.8163 19.9397 60.0229 21.6148 58.7361 22.8696C57.4619 24.1122 55.7877 24.8607 54.0132 24.9824C51.1545 30.3478 45.5038 34 39 34V45H44C45.6569 45 47 46.3431 47 48V50C47 50.3506 46.9399 50.6872 46.8293 51H53C54.6569 51 56 52.3431 56 54V56C56 57.6569 54.6569 59 53 59H11C9.34316 59 8.00001 57.6569 8.00001 56V54C8.00001 52.3431 9.34316 51 11 51H15.1707C15.0602 50.6872 15 50.3506 15 50V48C15 46.3431 16.3432 45 18 45H25V33.9711C18.8731 33.6157 13.6169 30.0156 10.9241 24.8636C10.3079 24.9828 9.67474 25.025 9.0391 24.9858C7.24522 24.8754 5.55064 24.1244 4.26388 22.8696C2.97711 21.6149 2.18373 19.9397 2.02816 18.1492C1.87259 16.3586 2.36519 14.5718 3.41627 13.1139C4.46735 11.656 6.00701 10.624 7.75497 10.2058C8.16634 10.1074 8.58281 10.0445 9.00001 10.0167V10Z" fill="#1F3C45"/>
<path d="M6.54758 34.6382C6.89741 33.7873 8.10261 33.7873 8.45244 34.6382L9.13661 36.3025C9.24117 36.5569 9.44314 36.7588 9.6975 36.8634L11.3618 37.5476C12.2128 37.8974 12.2128 39.1026 11.3618 39.4524L9.6975 40.1366C9.44314 40.2412 9.24117 40.4431 9.13661 40.6975L8.45244 42.3618C8.10261 43.2127 6.89741 43.2127 6.54758 42.3618L5.86342 40.6975C5.75885 40.4431 5.55688 40.2412 5.30252 40.1366L3.63825 39.4524C2.78727 39.1026 2.78727 37.8974 3.63825 37.5476L5.30252 36.8634C5.55688 36.7588 5.75885 36.5569 5.86342 36.3025L6.54758 34.6382Z" fill="#1F3C45"/>
<path d="M53.5394 34.6437C53.8922 33.7854 55.1078 33.7854 55.4606 34.6437L55.8481 35.5862C55.9535 35.8428 56.1572 36.0465 56.4138 36.1519L57.3563 36.5394C58.2146 36.8922 58.2146 38.1078 57.3563 38.4606L56.4138 38.8481C56.1572 38.9535 55.9535 39.1572 55.8481 39.4138L55.4606 40.3563C55.1078 41.2146 53.8922 41.2146 53.5394 40.3563L53.152 39.4138C53.0465 39.1572 52.8428 38.9535 52.5862 38.8481L51.6437 38.4606C50.7854 38.1078 50.7854 36.8922 51.6437 36.5394L52.5862 36.1519C52.8428 36.0465 53.0465 35.8428 53.152 35.5862L53.5394 34.6437Z" fill="#1F3C45"/>
<path d="M54.9934 22.7934C55.6448 20.9912 56 19.0473 56 17.0204V12.601C56.7727 12.9953 57.4469 13.5698 57.9614 14.2835C58.7322 15.3526 59.0934 16.663 58.9794 17.9761C58.8653 19.2891 58.2835 20.5176 57.3398 21.4377C56.6786 22.0825 55.8705 22.5459 54.9934 22.7934Z" fill="#B0D268"/>
<path d="M44 47H28C27.4477 47 27 47.4477 27 48V50C27 50.5523 27.4477 51 28 51H44C44.5523 51 45 50.5523 45 50V48C45 47.4477 44.5523 47 44 47Z" fill="#B0D268"/>
<path d="M53 53H21C20.4477 53 20 53.4477 20 54V56C20 56.5523 20.4477 57 21 57H53C53.5523 57 54 56.5523 54 56V54C54 53.4477 53.5523 53 53 53Z" fill="#B0D268"/>
<path fill-rule="evenodd" clip-rule="evenodd" d="M52 8H25C23.8954 8 23 8.89543 23 10V17C23 25.2843 29.7157 32 38 32H39C47.2843 32 54 25.2843 54 17V10C54 8.89543 53.1046 8 52 8ZM42.1963 14.4717C41.3896 12.5094 38.6104 12.5094 37.8037 14.4718L37.1759 15.999C37.1429 16.0792 37.0792 16.1429 36.999 16.1759L35.4718 16.8037C33.5094 17.6104 33.5094 20.3896 35.4718 21.1963L36.999 21.8241C37.0792 21.8571 37.1429 21.9208 37.1759 22.0009L37.8037 23.5282C38.6104 25.4906 41.3896 25.4906 42.1963 23.5282L42.8241 22.0009C42.8571 21.9208 42.9208 21.8571 43.001 21.8241L44.5282 21.1963C46.4906 20.3896 46.4906 17.6104 44.5282 16.8037L43.001 16.1759C42.9208 16.1429 42.8571 16.0792 42.8241 15.999L42.1963 14.4717Z" fill="#B0D268"/>
<path d="M37 34H32V45H37V34Z" fill="#F1EEE1"/>
<path d="M39.6997 15.2512C39.81 14.9829 40.19 14.9829 40.3002 15.2512L40.9281 16.7785C41.1692 17.365 41.6349 17.8308 42.2215 18.0719L43.7488 18.6997C44.0171 18.81 44.0171 19.1899 43.7488 19.3002L42.2215 19.9281C41.635 20.1692 41.1692 20.6349 40.9281 21.2215L40.3002 22.7488C40.19 23.017 39.81 23.017 39.6997 22.7488L39.0719 21.2215C38.8308 20.6349 38.365 20.1692 37.7785 19.9281L36.2512 19.3002C35.9829 19.1899 35.9829 18.81 36.2512 18.6997L37.7785 18.0719C38.365 17.8308 38.8308 17.365 39.0719 16.7785L39.6997 15.2512Z" fill="#F1EEE1"/>
</svg>
