<svg width="64" height="64" viewBox="0 0 64 64" fill="none" xmlns="http://www.w3.org/2000/svg">
<path d="M21 8C21 5.79086 22.7909 4 25 4H37C39.2091 4 41 5.79086 41 8V10H55C57.2091 10 59 11.7909 59 14V47C59 49.2091 57.2091 51 55 51H41V55C41 57.2091 39.2091 59 37 59H25C22.7909 59 21 57.2091 21 55V51H9C6.79086 51 5 49.2091 5 47V14C5 11.7909 6.79086 10 9 10H21V8Z" fill="#1F3C45"/>
<path fill-rule="evenodd" clip-rule="evenodd" d="M15 12H55C56.1046 12 57 12.8954 57 14V47C57 48.1046 56.1046 49 55 49H15C13.8954 49 13 48.1046 13 47V14C13 12.8954 13.8954 12 15 12ZM33.6137 19.482C34.8143 17.9062 37.1857 17.9062 38.3863 19.482L50.3481 35.1819C51.8527 37.1566 50.4445 40 47.9618 40H24.0382C21.5556 40 20.1473 37.1566 21.6519 35.1819L33.6137 19.482Z" fill="#B0D268"/>
<path d="M28 51H39V55C39 56.1046 38.1046 57 37 57H30C28.8954 57 28 56.1046 28 55V51Z" fill="#F1EEE1"/>
<path d="M28 8C28 6.89543 28.8954 6 30 6H37C38.1046 6 39 6.89543 39 8V10H28V8Z" fill="#F1EEE1"/>
<path d="M34.5 25.5C34.5 24.6716 35.1716 24 36 24C36.8284 24 37.5 24.6716 37.5 25.5V29.5C37.5 30.3284 36.8284 31 36 31C35.1716 31 34.5 30.3284 34.5 29.5V25.5Z" fill="#F1EEE1"/>
<path d="M34.5 34.5C34.5 33.6716 35.1716 33 36 33C36.8284 33 37.5 33.6716 37.5 34.5C37.5 35.3284 36.8284 36 36 36C35.1716 36 34.5 35.3284 34.5 34.5Z" fill="#F1EEE1"/>
</svg>
