<svg width="64" height="64" viewBox="0 0 64 64" fill="none" xmlns="http://www.w3.org/2000/svg">
<path d="M14.7541 11.7083C14.0449 10.4799 12.3246 10.39 11.8282 11.7188C10.8468 14.3465 11.0032 17.376 12.5152 19.9948C14.5105 23.4507 18.3054 25.2198 22.0327 24.8018L25.8353 31.3881C25 31.3881 24.5386 31.3881 24 31.3881C22 31.3881 21.1193 31.8249 20.2447 33.3398L7.9448 54.6438C6.78691 56.6493 8.18427 59.0111 10.5 59L11.7869 58.9939C11.8571 58.9983 11.9281 59.0003 12 59L13.2869 58.9939C13.3571 58.9983 13.4281 59.0003 13.5 59L14.3258 58.9961C14.3833 58.999 14.4414 59.0003 14.5 59H28.4312C28.6904 58.9988 29 59 29.2124 59H37.5945C38 59 38.2583 58.9997 38.5 59L52.9727 59.0173C55.3026 59.0201 56.5544 56.5467 55.3609 54.5456L42.6382 33.2138C42.4647 32.9229 42.2601 32.662 42.031 32.4328L46.7342 24.2866C46.8954 24.2735 47.0551 24.2488 47.2119 24.213C48.8203 24.5826 50.5379 23.721 51.1367 22.0753L54.5367 12.7297C55.0966 11.1907 54.4709 9.47184 53.0526 8.653L50.372 7.10538C49.6119 6.66651 48.5 6.69022 47.9827 6.69022C47.5 6.69022 47 6.69022 46.5 6.69022C46 6.69022 45.871 6.69022 45.4355 6.69022C45 6.69022 44.5 6.69022 43.9355 6.69022C42.5 6.69022 41.4306 6.86821 40.5995 7.85842L34.206 15.4757C32.9926 16.9214 33.2177 19.0371 34.5973 20.2116L31.4848 25.6028L28.7749 20.9092C31.0006 17.8902 31.3659 13.7192 29.3707 10.2633C27.8587 7.64445 25.3132 5.99423 22.5469 5.53038C21.1479 5.29581 20.3656 6.83056 21.0749 8.05898L23.4951 12.2509C24.5028 13.9964 23.9048 16.2283 22.1593 17.236C20.4139 18.2437 18.182 17.6457 17.1743 15.9003L14.7541 11.7083Z" fill="#1F3C45"/>
<path d="M32.5243 0.653795C32.8827 -0.217932 34.1173 -0.217932 34.4757 0.653795L34.5619 0.863525C34.669 1.12409 34.8759 1.33098 35.1365 1.4381L35.3462 1.52432C36.2179 1.88267 36.2179 3.11726 35.3462 3.47562L35.1365 3.56184C34.8759 3.66895 34.669 3.87585 34.5619 4.13641L34.4757 4.34614C34.1173 5.21787 32.8827 5.21787 32.5243 4.34614L32.4381 4.13641C32.331 3.87585 32.1241 3.66895 31.8635 3.56184L31.6538 3.47562C30.7821 3.11726 30.7821 1.88267 31.6538 1.52432L31.8635 1.4381C32.1241 1.33098 32.331 1.12409 32.4381 0.863526L32.5243 0.653795Z" fill="#1F3C45"/>
<path d="M6.54757 26.6382C6.8974 25.7873 8.1026 25.7873 8.45243 26.6382L9.1366 28.3025C9.24116 28.5569 9.44313 28.7588 9.69749 28.8634L11.3618 29.5475C12.2127 29.8974 12.2127 31.1026 11.3618 31.4524L9.69749 32.1366C9.44313 32.2411 9.24116 32.4431 9.1366 32.6974L8.45243 34.3617C8.1026 35.2127 6.8974 35.2127 6.54757 34.3617L5.8634 32.6974C5.75884 32.4431 5.55687 32.2411 5.30251 32.1366L3.63823 31.4524C2.78726 31.1026 2.78726 29.8974 3.63823 29.5475L5.30251 28.8634C5.55687 28.7588 5.75884 28.5569 5.8634 28.3025L6.54757 26.6382Z" fill="#1F3C45"/>
<path d="M54.5394 34.6437C54.8922 33.7854 56.1078 33.7854 56.4606 34.6437L56.8481 35.5862C56.9535 35.8428 57.1572 36.0465 57.4138 36.1519L58.3563 36.5394C59.2146 36.8922 59.2146 38.1077 58.3563 38.4606L57.4138 38.848C57.1572 38.9535 56.9535 39.1572 56.8481 39.4137L56.4606 40.3562C56.1078 41.2145 54.8922 41.2145 54.5394 40.3562L54.1519 39.4137C54.0465 39.1572 53.8428 38.9535 53.5862 38.848L52.6437 38.4606C51.7854 38.1077 51.7854 36.8922 52.6437 36.5394L53.5862 36.1519C53.8428 36.0465 54.0465 35.8428 54.1519 35.5862L54.5394 34.6437Z" fill="#1F3C45"/>
<path d="M15.1769 55.6439L23.2348 41.6871C23.4995 41.9211 23.7933 42.1304 24.1146 42.3097L36.0288 48.9575C36.0846 48.9887 36.1407 49.0186 36.1972 49.0474L31.6101 56.1613C31.2436 56.7296 30.6149 57.0742 29.9388 57.0775L16.0477 57.1439C15.2758 57.1476 14.7909 56.3124 15.1769 55.6439Z" fill="#B0D268"/>
<path d="M30.2085 33.611L39.9628 39.2519C40.9531 39.8246 41.2622 41.1097 40.6405 42.0701L37.7158 46.5877C37.4293 47.0304 36.8482 47.1744 36.388 46.9169L25.0491 40.5713C24.5625 40.2991 24.3926 39.6815 24.6714 39.1987L27.4752 34.3423C28.0278 33.3852 29.2518 33.0577 30.2085 33.611Z" fill="#B0D268"/>
<path d="M41.3938 18.6888C42.1287 19.3145 42.312 20.3758 41.8294 21.2116L34.5537 33.8134L37.8304 35.7084L45.1074 23.1043C45.59 22.2683 46.6008 21.8964 47.5101 22.22C48.2034 22.4668 48.9955 22.1107 49.2572 21.3915L52.6572 12.0459C52.8853 11.4189 52.6304 10.7186 52.0526 10.385L49.372 8.83742C48.7942 8.50382 48.0603 8.63318 47.6313 9.14423L41.2378 16.7616C40.7458 17.3478 40.8335 18.2118 41.3938 18.6888Z" fill="#F1EEE1"/>
</svg>
