<svg width="64" height="64" viewBox="0 0 64 64" fill="none" xmlns="http://www.w3.org/2000/svg">
<path fill-rule="evenodd" clip-rule="evenodd" d="M17 7.00002C17 4.79088 18.7909 3.00002 21 3.00002C23.2091 3.00002 25 4.79088 25 7.00002C25 9.20915 23.2091 11 21 11C18.7909 11 17 9.20915 17 7.00002Z" fill="#1F3C45"/>
<path d="M42.4142 0.52782C43.7467 0.0329878 45.317 0.534145 46.0106 1.86971C48.7888 7.21896 48.5369 11.7197 46.3794 15.8083C45.8697 16.7742 45.3034 17.5357 44.7137 18.1591C51.791 23.6989 56.6542 32.7556 57.1433 41.7547C57.8732 41.8763 58.5606 42.2472 59.0627 42.8612L60.8456 45.0413C61.9697 46.4159 61.7704 48.6178 60.0344 49.5318C58.7895 50.1873 57.4145 50.7198 55.9401 51.0128C53.8565 56.4055 47.6601 58.7387 41.7044 58.7539L10.5674 58.8333C6.8874 58.8426 4.3804 55.1119 5.78866 51.7218L17.8306 22.7334C19.9977 17.5165 24.1332 12.8058 29.7961 12.7587C32.0618 12.7399 34.2704 13.0841 36.3869 13.7338C36.7843 13.4404 37.1961 13.1016 37.6279 12.6942C39.2533 11.1602 39.6384 9.78953 39.5867 8.61936C39.5315 7.3691 38.9789 6.21046 38.4206 5.08574C37.6696 3.57277 38.5074 1.97862 39.9398 1.44669L42.4142 0.52782Z" fill="#1F3C45"/>
<path d="M62 30C62 31.1046 61.1046 32 60 32C58.8954 32 58 31.1046 58 30C58 28.8954 58.8954 28 60 28C61.1046 28 62 28.8954 62 30Z" fill="#1F3C45"/>
<path d="M6.46253 18.6952C6.84359 17.7683 8.15641 17.7683 8.53747 18.6952L9.16567 20.2234C9.27957 20.5004 9.49958 20.7204 9.77665 20.8343L11.3048 21.4625C12.2317 21.8436 12.2317 23.1564 11.3048 23.5375L9.77665 24.1657C9.49957 24.2796 9.27957 24.4996 9.16567 24.7767L8.53747 26.3048C8.15641 27.2318 6.84359 27.2318 6.46253 26.3048L5.83433 24.7767C5.72043 24.4996 5.50042 24.2796 5.22335 24.1657L3.69522 23.5375C2.76826 23.1564 2.76826 21.8436 3.69522 21.4625L5.22335 20.8343C5.50043 20.7204 5.72043 20.5004 5.83433 20.2234L6.46253 18.6952Z" fill="#1F3C45"/>
<path d="M55.446 12.7063C55.8332 11.7646 57.1668 11.7646 57.554 12.7063L57.88 13.4993C57.9957 13.7808 58.2192 14.0043 58.5007 14.12L59.2937 14.4461C60.2354 14.8332 60.2354 16.1669 59.2937 16.554L58.5007 16.88C58.2192 16.9957 57.9957 17.2192 57.88 17.5007L57.554 18.2937C57.1668 19.2354 55.8332 19.2354 55.446 18.2937L55.12 17.5007C55.0043 17.2192 54.7808 16.9957 54.4993 16.88L53.7063 16.554C52.7646 16.1669 52.7646 14.8332 53.7063 14.4461L54.4993 14.12C54.7808 14.0043 55.0043 13.7808 55.12 13.4993L55.446 12.7063Z" fill="#1F3C45"/>
<path d="M14.3453 36.337L19.6775 23.5006C19.9235 22.9084 20.192 22.3335 20.4816 21.78C18.6275 27.7302 20.3212 36.1619 25.4701 43.7308C30.8339 51.6157 38.4569 56.373 44.8545 56.5073C43.8374 56.6686 42.7791 56.7511 41.6993 56.7539L25.5329 56.7951C13.9516 50.623 13.3665 40.3504 14.3453 36.337Z" fill="#B0D268"/>
<path d="M12.1594 41.5989L7.63563 52.489C6.77877 54.5517 8.30177 56.839 10.5623 56.8332L21.703 56.8048C15.1354 52.2619 12.7184 46.3202 12.1594 41.5989Z" fill="#B0D268"/>
<path d="M19 7.00003C19 5.89546 19.8954 5.00003 21 5.00003C22.1046 5.00003 23 5.89546 23 7.00003C23 8.1046 22.1046 9.00003 21 9.00003C19.8954 9.00003 19 8.1046 19 7.00003Z" fill="#F1EEE1"/>
<path d="M28 39C28 37.8955 28.8954 37 30 37C31.1046 37 32 37.8955 32 39C32 40.1046 31.1046 41 30 41C28.8954 41 28 40.1046 28 39Z" fill="#F1EEE1"/>
<path d="M43.1104 2.40273C43.5761 2.2298 44.0453 2.42485 44.2357 2.79154C46.725 7.5845 46.4487 11.3915 44.6105 14.875C43.4825 17.0128 42.2306 17.7699 40.7581 18.6606C40.2323 18.9786 39.6784 19.3136 39.092 19.7345C37.9938 20.5227 36.9297 21.5539 36.0159 23.2625C35.1141 24.9486 34.3803 27.2536 33.8635 30.564C33.7395 31.358 32.8844 31.7357 32.2787 31.3857L29.3781 29.7102C29.0007 29.4922 28.8139 29.0605 28.9073 28.6507C30.4604 21.8326 31.8321 19.4564 33.21 18.1903C33.8434 17.6083 34.5035 17.2314 35.343 16.7521C35.4427 16.6952 35.5449 16.6369 35.6499 16.5766C36.6267 16.0155 37.7448 15.3339 39.0006 14.1487C41.0014 12.2604 41.6649 10.344 41.5848 8.53112C41.5087 6.80873 40.7579 5.29622 40.2218 4.2161L40.2121 4.19655C40.1195 4.01011 40.129 3.846 40.1895 3.70961C40.2538 3.56464 40.3965 3.41056 40.636 3.3216L43.1104 2.40273Z" fill="#F1EEE1"/>
<path d="M42.446 28.7063C42.8332 27.7646 44.1668 27.7646 44.554 28.7063L44.88 29.4994C44.9957 29.7808 45.2192 30.0043 45.5007 30.12L46.2937 30.4461C47.2354 30.8332 47.2354 32.1669 46.2937 32.554L45.5007 32.88C45.2192 32.9957 44.9957 33.2192 44.88 33.5007L44.554 34.2938C44.1668 35.2355 42.8332 35.2354 42.446 34.2938L42.12 33.5007C42.0043 33.2192 41.7808 32.9957 41.4993 32.88L40.7063 32.554C39.7646 32.1669 39.7646 30.8332 40.7063 30.4461L41.4993 30.12C41.7808 30.0043 42.0043 29.7808 42.12 29.4994L42.446 28.7063Z" fill="#F1EEE1"/>
<path d="M37.8887 44.2603C38.9869 43.5819 40.624 42.7084 42.3633 42.2449C44.1137 41.7785 45.8124 41.7662 47.1854 42.5867C48.8402 43.5755 50.1297 44.3084 51.4972 44.5485C52.9195 44.7983 54.303 44.5024 56.1388 43.797C56.6531 43.5993 57.204 43.7476 57.5145 44.1273L59.2974 46.3074C59.7407 46.8496 59.5575 47.5226 59.1026 47.7622C55.7969 49.5027 51.6208 50.212 47.0547 47.168C45.9539 46.4341 44.7141 46.3861 43.6051 46.6168C42.5055 46.8455 41.4482 47.3627 40.5806 47.8884C39.719 48.4104 38.6737 48.0548 38.382 47.3699L37.5658 45.4536C37.3586 44.9672 37.5274 44.4834 37.8887 44.2603Z" fill="#F1EEE1"/>
</svg>
