<svg width="64" height="64" viewBox="0 0 64 64" fill="none" xmlns="http://www.w3.org/2000/svg">
<path fill-rule="evenodd" clip-rule="evenodd" d="M5 13C5 10.7909 6.79086 9 9 9H55C57.2091 9 59 10.7909 59 13V44C59 46.2091 57.2091 48 55 48H53L53 53C53 53.0059 53 53.0118 53 53.0177C52.9931 54.7573 51.9829 56.0414 50.6663 56.6375C50.4152 56.7527 50.1502 56.8427 49.8743 56.9042C49.4943 56.9909 49.1018 57.0244 48.7105 57H46.6394C44.9576 57 43.3529 56.2941 42.2165 55.0543L35.75 48H9C6.79086 48 5 46.2091 5 44V13Z" fill="#1F3C45"/>
<path d="M7.54757 53.6382C7.8974 52.7873 9.1026 52.7873 9.45243 53.6382L10.1366 55.3025C10.2412 55.5569 10.4431 55.7588 10.6975 55.8634L12.3618 56.5476C13.2127 56.8974 13.2127 58.1026 12.3618 58.4524L10.6975 59.1366C10.4431 59.2412 10.2412 59.4431 10.1366 59.6975L9.45243 61.3618C9.1026 62.2127 7.8974 62.2127 7.54757 61.3618L6.8634 59.6975C6.75884 59.4431 6.55687 59.2412 6.30251 59.1366L4.63823 58.4524C3.78726 58.1026 3.78726 56.8974 4.63823 56.5476L6.30251 55.8634C6.55687 55.7588 6.75884 55.5569 6.8634 55.3025L7.54757 53.6382Z" fill="#1F3C45"/>
<path d="M60.5243 52.6538C60.8827 51.7821 62.1173 51.7821 62.4757 52.6538L62.5619 52.8635C62.669 53.1241 62.8759 53.331 63.1365 53.4381L63.3462 53.5243C64.2179 53.8827 64.2179 55.1173 63.3462 55.4757L63.1365 55.5619C62.8759 55.669 62.669 55.8759 62.5619 56.1365L62.4757 56.3462C62.1173 57.2179 60.8827 57.2179 60.5243 56.3462L60.4381 56.1365C60.331 55.8759 60.1241 55.669 59.8635 55.5619L59.6538 55.4757C58.7821 55.1173 58.7821 53.8827 59.6538 53.5243L59.8635 53.4381C60.1241 53.331 60.331 53.1241 60.4381 52.8635L60.5243 52.6538Z" fill="#1F3C45"/>
<path d="M58.5394 1.64371C58.8922 0.78543 60.1078 0.785431 60.4606 1.64371L60.8481 2.58623C60.9535 2.84278 61.1572 3.04648 61.4138 3.15194L62.3563 3.5394C63.2146 3.89223 63.2146 5.10777 62.3563 5.4606L61.4138 5.84806C61.1572 5.95352 60.9535 6.15722 60.8481 6.41377L60.4606 7.35629C60.1078 8.21457 58.8922 8.21457 58.5394 7.35629L58.1519 6.41377C58.0465 6.15722 57.8428 5.95352 57.5862 5.84806L56.6437 5.4606C55.7854 5.10777 55.7854 3.89223 56.6437 3.5394L57.5862 3.15194C57.8428 3.04648 58.0465 2.84278 58.1519 2.58623L58.5394 1.64371Z" fill="#1F3C45"/>
<path fill-rule="evenodd" clip-rule="evenodd" d="M41.25 46L47.4 54.2C48.5532 55.7376 51 54.922 51 53V46H55C56.1046 46 57 45.1046 57 44V13C57 11.8954 56.1046 11 55 11H16C14.8954 11 14 11.8954 14 13V44C14 45.1046 14.8954 46 16 46H41.25ZM24.5 33C26.9853 33 29 30.9853 29 28.5C29 26.0147 26.9853 24 24.5 24C22.0147 24 20 26.0147 20 28.5C20 30.9853 22.0147 33 24.5 33ZM40 28.5C40 30.9853 37.9853 33 35.5 33C33.0147 33 31 30.9853 31 28.5C31 26.0147 33.0147 24 35.5 24C37.9853 24 40 26.0147 40 28.5ZM46.5 33C48.9853 33 51 30.9853 51 28.5C51 26.0147 48.9853 24 46.5 24C44.0147 24 42 26.0147 42 28.5C42 30.9853 44.0147 33 46.5 33Z" fill="#B0D268"/>
<path d="M27 28.5C27 29.8807 25.8807 31 24.5 31C23.1193 31 22 29.8807 22 28.5C22 27.1193 23.1193 26 24.5 26C25.8807 26 27 27.1193 27 28.5Z" fill="#F1EEE1"/>
<path d="M38 28.5C38 29.8807 36.8807 31 35.5 31C34.1193 31 33 29.8807 33 28.5C33 27.1193 34.1193 26 35.5 26C36.8807 26 38 27.1193 38 28.5Z" fill="#F1EEE1"/>
<path d="M49 28.5C49 29.8807 47.8807 31 46.5 31C45.1193 31 44 29.8807 44 28.5C44 27.1193 45.1193 26 46.5 26C47.8807 26 49 27.1193 49 28.5Z" fill="#F1EEE1"/>
</svg>
