<svg width="64" height="64" viewBox="0 0 64 64" fill="none" xmlns="http://www.w3.org/2000/svg">
<path d="M14 11C14 8.79086 15.7909 7 18 7H29C31.2091 7 33 8.79086 33 11C33 8.79086 34.7909 7 37 7H48C50.2091 7 52 8.79086 52 11V13H55C57.2091 13 59 14.7909 59 17V55C59 57.2091 57.2091 59 55 59H9C6.79086 59 5 57.2091 5 55V17C5 14.7909 6.79086 13 9 13H14V11Z" fill="#1F3C45"/>
<path d="M5.54757 0.638238C5.8974 -0.212746 7.1026 -0.212746 7.45243 0.638238L8.1366 2.30252C8.24116 2.55689 8.44313 2.75886 8.69749 2.86342L10.3618 3.54759C11.2127 3.89743 11.2127 5.10264 10.3618 5.45247L8.69749 6.13664C8.44313 6.24121 8.24116 6.44317 8.1366 6.69754L7.45243 8.36182C7.1026 9.21281 5.8974 9.21281 5.54757 8.36182L4.8634 6.69754C4.75884 6.44317 4.55687 6.24121 4.30251 6.13664L2.63823 5.45247C1.78726 5.10264 1.78726 3.89743 2.63823 3.54759L4.30251 2.86342C4.55687 2.75886 4.75884 2.55689 4.8634 2.30252L5.54757 0.638238Z" fill="#1F3C45"/>
<path d="M56.5394 2.64371C56.8922 1.78543 58.1078 1.78543 58.4606 2.64371L58.8481 3.58625C58.9535 3.84279 59.1572 4.04649 59.4138 4.15196L60.3563 4.53942C61.2146 4.89226 61.2146 6.10781 60.3563 6.46064L59.4138 6.84811C59.1572 6.95357 58.9535 7.15727 58.8481 7.41382L58.4606 8.35635C58.1078 9.21463 56.8922 9.21463 56.5394 8.35635L56.1519 7.41382C56.0465 7.15727 55.8428 6.95357 55.5862 6.84811L54.6437 6.46064C53.7854 6.10781 53.7854 4.89226 54.6437 4.53942L55.5862 4.15196C55.8428 4.04649 56.0465 3.84279 56.1519 3.58625L56.5394 2.64371Z" fill="#1F3C45"/>
<path fill-rule="evenodd" clip-rule="evenodd" d="M15 25H57V55C57 56.1046 56.1046 57 55 57H17C15.8954 57 15 56.1046 15 55V25ZM24 32C24 30.8954 24.8954 30 26 30H32C33.1046 30 34 30.8954 34 32V36C34 37.1046 33.1046 38 32 38H26C24.8954 38 24 37.1046 24 36V32ZM26 42C24.8954 42 24 42.8954 24 44V48C24 49.1046 24.8954 50 26 50H32C33.1046 50 34 49.1046 34 48V44C34 42.8954 33.1046 42 32 42H26ZM38 44C38 42.8954 38.8954 42 40 42H46C47.1046 42 48 42.8954 48 44V48C48 49.1046 47.1046 50 46 50H40C38.8954 50 38 49.1046 38 48V44ZM40 30C38.8954 30 38 30.8954 38 32V36C38 37.1046 38.8954 38 40 38H46C47.1046 38 48 37.1046 48 36V32C48 30.8954 47.1046 30 46 30H40Z" fill="#B0D268"/>
<path d="M24 9H29C30.1046 9 31 9.89543 31 11V13H22V11C22 9.89543 22.8954 9 24 9Z" fill="#F1EEE1"/>
<path d="M43 9H48C49.1046 9 50 9.89543 50 11V13H41V11C41 9.89543 41.8954 9 43 9Z" fill="#F1EEE1"/>
<path d="M55 15H17C15.8954 15 15 15.8954 15 17V23H57V17C57 15.8954 56.1046 15 55 15Z" fill="#F1EEE1"/>
</svg>
